<svg viewBox="0 0 24 24" xmlns="http://www.w3.org/2000/svg"><path d="m0 0v24h24v-24z" fill="none"/><path d="m15 18.5h-6c-.28 0-.5.22-.5.5s.22.5.5.5h6c.28 0 .5-.22.5-.5s-.22-.5-.5-.5z"/><path d="m19 6.5h-14c-.83 0-1.5.67-1.5 1.5v8c0 .83.67 1.5 1.5 1.5h14c.83 0 1.5-.67 1.5-1.5v-8c0-.83-.67-1.5-1.5-1.5zm.5 9.5c0 .28-.22.5-.5.5h-14c-.28 0-.5-.22-.5-.5v-8c0-.28.22-.5.5-.5h14c.28 0 .5.22.5.5z"/><circle cx="12" cy="12" r=".75"/><path d="m10.44 10.23c-.2-.2-.51-.2-.71 0-.47.47-.73 1.1-.73 1.77s.26 1.3.73 1.77c.1.1.23.15.35.15s.26-.05.35-.15c.19-.2.19-.51 0-.71-.28-.28-.44-.66-.44-1.06s.16-.78.44-1.06c.2-.2.2-.51 0-.71z"/><path d="m14.27 10.23c-.2-.19-.51-.19-.71 0-.19.2-.19.51 0 .71.28.28.44.66.44 1.06s-.16.78-.44 1.06c-.2.2-.2.51 0 .71.1.1.23.15.35.15s.26-.05.35-.15c.47-.47.73-1.1.73-1.77s-.26-1.3-.73-1.77z"/><path d="m15.12 9.17c-.2.2-.2.51 0 .71.57.57.88 1.32.88 2.12s-.31 1.55-.88 2.12c-.2.19-.2.51 0 .71.1.1.23.15.35.15s.26-.05.35-.15c.76-.75 1.17-1.76 1.17-2.83s-.42-2.07-1.17-2.83c-.2-.2-.51-.2-.71 0z"/><path d="m8 12c0-.8.31-1.55.88-2.12.2-.19.2-.51 0-.71s-.51-.2-.71 0c-.76.75-1.17 1.76-1.17 2.83s.42 2.07 1.17 2.83c.1.1.23.15.35.15s.26-.05.35-.15c.19-.2.19-.51 0-.71-.57-.57-.88-1.32-.88-2.12z"/></svg>