<svg viewBox="0 0 24 24" xmlns="http://www.w3.org/2000/svg"><path d="m0 0v24h24v-24z" fill="none"/><path d="m15.9 14.61c.13 0 .26-.05.35-.15.2-.2.2-.51 0-.71-1.14-1.13-2.64-1.76-4.25-1.76s-3.11.62-4.25 1.76c-.2.19-.2.51 0 .71s.51.2.71 0c.95-.94 2.21-1.46 3.54-1.46s2.6.52 3.54 1.46c.1.1.23.15.35.15z"/><path d="m12 5.5c-3.34 0-6.49 1.3-8.85 3.66-.2.19-.2.51 0 .71s.51.2.71 0c2.18-2.17 5.07-3.37 8.15-3.37s5.97 1.2 8.15 3.37c.1.1.23.15.35.15s.26-.05.35-.15c.2-.2.2-.51 0-.71-2.37-2.36-5.51-3.66-8.85-3.66z"/><path d="m18.2 12.31c.13 0 .26-.05.35-.15.2-.2.2-.51 0-.71-1.75-1.75-4.08-2.71-6.55-2.71s-4.8.96-6.55 2.71c-.2.19-.2.51 0 .71s.51.2.71 0c1.56-1.56 3.64-2.42 5.84-2.42s4.28.86 5.84 2.42c.1.1.23.15.35.15z"/><path d="m10.25 16.75c0 .96.79 1.75 1.75 1.75s1.75-.79 1.75-1.75-.79-1.75-1.75-1.75-1.75.79-1.75 1.75zm2.5 0c0 .41-.34.75-.75.75s-.75-.34-.75-.75.34-.75.75-.75.75.34.75.75z"/></svg>