<svg xmlns="http://www.w3.org/2000/svg" viewBox="0 0 24 24"><path d="M0 0v24h24V0H0Z" style="fill:none"/><path d="M9.688 6.25h.812v.375a.5.5 0 0 0 1 0V4a.5.5 0 0 0-1 0v1.25h-.812a.5.5 0 0 0 0 1ZM13.188 6.25H14v.375a.5.5 0 0 0 1 0V4a.5.5 0 0 0-1 0v1.25h-.812a.5.5 0 0 0 0 1Z"/><path d="M18 16.75a.5.5 0 0 0-.5.5V18a.375.375 0 0 1-.375.375H4.875A.375.375 0 0 1 4.5 18V9.75h13v2.75a.5.5 0 0 0 1 0V6.625c0-.758-.617-1.375-1.375-1.375h-.438a.5.5 0 0 0 0 1h.438c.207 0 .375.168.375.375V8.75h-13V6.625c0-.207.168-.375.375-.375H7v.375a.5.5 0 0 0 1 0V4a.5.5 0 0 0-1 0v1.25H4.875c-.758 0-1.375.617-1.375 1.375V18c0 .758.617 1.375 1.375 1.375h12.25c.758 0 1.375-.617 1.375-1.375v-.75a.5.5 0 0 0-.5-.5Z"/><path d="M7 12a.5.5 0 0 0 0 1h8a.5.5 0 0 0 0-1H7ZM21.554 14.646l-1.5-1.5a.5.5 0 0 0-.707.707l.646.646H7a.5.5 0 0 0 0 1h12.993l-.646.646a.5.5 0 0 0 .708.707l1.5-1.5a.5.5 0 0 0 0-.707Z"/></svg>