<svg viewBox="0 0 24 24" xmlns="http://www.w3.org/2000/svg"><path d="m0 0v24h24v-24z" fill="none"/><path d="m20 17.5h-3c-.28 0-.5.22-.5.5s.22.5.5.5h3c.28 0 .5-.22.5-.5s-.22-.5-.5-.5z"/><path d="m14 3.5h3c.28 0 .5-.22.5-.5s-.22-.5-.5-.5h-3c-.83 0-1.5.65-1.5 1.44s.67 1.44 1.5 1.44h1.25c.14 0 .25.09.25.21s-.11.21-.25.21c-.69 0-1.25.54-1.25 1.21 0 .28.22.5.5.5s.5-.22.5-.5c0-.11.11-.21.25-.21.69 0 1.25-.54 1.25-1.21s-.56-1.21-1.25-1.21h-1.25c-.28 0-.5-.2-.5-.44s.22-.44.5-.44z"/><path d="m19.5 9.5v-.5c0-.28-.22-.5-.5-.5h-8c-.28 0-.5.22-.5.5v2.5c0 .28.22.5.5.5s.5-.22.5-.5v-2h7v3.7c0 1.27-1.08 2.3-2.41 2.3h-.09c-.28 0-.46.22-.46.5s.27.5.55.5c1.77 0 3.22-1.32 3.38-3h.03c1.1 0 2-.9 2-2s-.9-2-2-2zm0 3v-2c.55 0 1 .45 1 1s-.45 1-1 1z"/><path d="m7.16 20.47c.06-.02.12-.06.17-.1.23.07.46.12.67.12h2c.22 0 .45-.05.67-.12.05.04.1.08.17.1l2.05.68c.24.08.49.12.74.12.49 0 .95-.15 1.22-.42.43-.43.49-1.28.15-1.97l-.55-1.11c-.12-.25-.42-.35-.67-.22-.25.12-.35.42-.22.67l.55 1.11c.17.35.12.73.04.82-.1.1-.53.2-.94.06l-1.44-.48c.08-.08.17-.15.23-.23l1.8-2.4c.25-.34.34-.74.22-1.11-.11-.36-.41-.65-.81-.78l-1.89-.63c-.04-.23-.13-.44-.28-.61-.25-.3-.63-.47-1.04-.47h-2c-.41 0-.79.17-1.04.47-.15.17-.24.39-.28.61l-1.89.63c-.4.13-.7.42-.81.78s-.03.77.22 1.11l1.8 2.4c.06.08.15.15.23.23l-1.44.48c-.41.14-.84.04-.94-.06-.08-.08-.13-.47.04-.82l.55-1.11c.12-.25.02-.55-.22-.67-.25-.12-.55-.02-.67.22l-.55 1.11c-.35.69-.28 1.54.15 1.97.27.27.74.42 1.22.42.25 0 .5-.04.74-.12l2.05-.68zm5.91-4.18c.02.05 0 .13-.07.21l-1.8 2.4c-.13.17-.36.33-.61.44.03-.08.05-.16.07-.25l.58-3.49 1.65.55c.09.03.16.08.17.13zm-5.34-1.68c.06-.07.16-.11.28-.11h2c.12 0 .21.04.28.11.06.07.08.18.07.29l-.67 4.03c-.05.3-.36.57-.67.57s-.62-.27-.67-.57l-.67-4.03c-.02-.12 0-.22.07-.29zm-2.72 1.89c-.06-.08-.08-.16-.07-.21.02-.05.08-.1.17-.13l1.65-.55.58 3.49c.01.09.04.17.07.25-.25-.11-.48-.27-.61-.44l-1.8-2.4z"/></svg>