<svg viewBox="0 0 24 24" xmlns="http://www.w3.org/2000/svg"><path d="m0 0v24h24v-24z" fill="none"/><path d="m18.5 15v-2c0-.28-.22-.5-.5-.5s-.5.22-.5.5v2c0 .28.22.5.5.5s.5-.22.5-.5z"/><path d="m20 12.5c-.28 0-.5.22-.5.5v2c0 .28.22.5.5.5s.5-.22.5-.5v-2c0-.28-.22-.5-.5-.5z"/><path d="m15.6 19.29c.1.13.25.21.4.21.1 0 .21-.03.29-.1.22-.16.27-.47.11-.7l-2.33-3.21h1.93c.28 0 .5-.22.5-.5v-2c0-.28-.22-.5-.5-.5h-4.11l-3.49-4.79c-.16-.22-.47-.27-.7-.11s-.27.47-.11.7l8 11zm-.1-5.79v1h-2.15l-.73-1z"/><path d="m4 15.5h6.5c.28 0 .5-.22.5-.5s-.22-.5-.5-.5h-6v-1h4.5c.28 0 .5-.22.5-.5s-.22-.5-.5-.5h-5c-.28 0-.5.22-.5.5v2c0 .28.22.5.5.5z"/><path d="m15.5 7.5c-.28 0-.5.22-.5.5s.22.5.5.5h2c1.1 0 2 .9 2 2v.5c0 .28.22.5.5.5s.5-.22.5-.5v-.5c0-1.65-1.35-3-3-3h-.27c.17-.29.27-.64.27-1 0-1.1-.9-2-2-2-.28 0-.5.22-.5.5s.22.5.5.5c.55 0 1 .45 1 1s-.45 1-1 1z"/><path d="m12.5 8.45v.05c0 1.1.9 2 2 2h2.5c.28 0 .5.22.5.5s.22.5.5.5.5-.22.5-.5c0-.83-.67-1.5-1.5-1.5h-2.5c-.55 0-1-.45-1-1v-.5c0-.28-.22-.5-.5-.5-.83 0-1.5-.67-1.5-1.5s.67-1.5 1.5-1.5c.28 0 .5-.22.5-.5s-.22-.5-.5-.5c-1.38 0-2.5 1.12-2.5 2.5 0 1.21.86 2.22 2 2.45z"/></svg>