<svg viewBox="0 0 24 24" xmlns="http://www.w3.org/2000/svg"><path d="m0 0v24h24v-24z" fill="none"/><path d="m11 4.5c-.28 0-.5.22-.5.5s.22.5.5.5h2c.28 0 .5-.22.5-.5s-.22-.5-.5-.5z"/><path d="m20.65 7.65-7.65 7.64-2.65-2.64c-.2-.19-.51-.19-.71 0s-.19.51 0 .71l3 2.99c.1.1.23.15.35.15s.26-.05.35-.15l8-7.99c.2-.2.2-.51 0-.71s-.51-.2-.71 0z"/><path d="m17 9.5c.28 0 .5-.22.5-.5v-4c0-1.38-1.12-2.5-2.5-2.5h-6c-1.38 0-2.5 1.12-2.5 2.5v14c0 1.38 1.12 2.5 2.5 2.5h6c1.38 0 2.5-1.12 2.5-2.5v-4c0-.28-.22-.5-.5-.5s-.5.22-.5.5v4c0 .83-.67 1.5-1.5 1.5h-6c-.83 0-1.5-.67-1.5-1.5v-14c0-.83.67-1.5 1.5-1.5h6c.83 0 1.5.67 1.5 1.5v4c0 .28.22.5.5.5z"/></svg>