<svg viewBox="0 0 24 24" xmlns="http://www.w3.org/2000/svg">
    <path d="m0 .00005v24h24v-24z" fill="none"/>
    <path d="m20 3.5h-6c-.82715 0-1.5.67285-1.5 1.5v6.5h-7v-2.5c0-.27539.22412-.5.5-.5s.5.22461.5.5c0 .27637.22363.5.5.5s.5-.22363.5-.5c0-.82715-.67285-1.5-1.5-1.5s-1.5.67285-1.5 1.5v2.5h-.5c-.82715 0-1.5.67285-1.5 1.5v6c0 .27637.22363.5.5.5h8c.27637 0 .5-.22363.5-.5s-.22363-.5-.5-.5h-7.5v-5.5c0-.27539.22412-.5.5-.5h8.5v5.5c0 .82715.67285 1.5 1.5 1.5h6c.82715 0 1.5-.67285 1.5-1.5v-13c0-.82715-.67285-1.5-1.5-1.5zm-6 1h6c.27539 0 .5.22461.5.5v3.5h-7v-3.5c0-.27539.22461-.5.5-.5zm6 14h-6c-.27539 0-.5-.22461-.5-.5v-8.5h7v8.5c0 .27539-.22461.5-.5.5z"/>
    <path d="m15 7.5c.27637 0 .5-.22363.5-.5v-1c0-.27637-.22363-.5-.5-.5s-.5.22363-.5.5v1c0 .27637.22363.5.5.5z"/>
    <path d="m15 10.5c-.27637 0-.5.22363-.5.5v2c0 .27637.22363.5.5.5s.5-.22363.5-.5v-2c0-.27637-.22363-.5-.5-.5z"/>
    <circle cx="10" cy="14" r=".75"/>
    <circle cx="6" cy="14" r=".75"/>
    <circle cx="8" cy="14" r=".75"/>
</svg>