<svg viewBox="0 0 24 24" xmlns="http://www.w3.org/2000/svg"><path d="m0 0v24h24v-24z" fill="none"/><path d="m11.06 8.5c.11 0 .22-.04.31-.11.22-.17.25-.49.08-.7l-3.17-4c-.17-.22-.49-.25-.7-.08-.22.17-.25.49-.08.7l3.17 4c.1.12.24.19.39.19z"/><path d="m12 16.5c-1.38 0-1.82-.22-2.28-.45-.54-.27-1.11-.55-2.72-.55-.23 0-.43.16-.48.38l-.91 3.62h-.11v-5.4c0-1.5 1.25-1.6 1.5-1.6h4c.28 0 .5-.22.5-.5s-.22-.5-.5-.5h-4c-.35 0-.82.09-1.26.33-1.2-1.21-1.24-2.82-1.24-2.83 0-.27-.23-.5-.5-.5-.28 0-.5.22-.5.5 0 .09.04 1.98 1.49 3.49-.29.39-.49.91-.49 1.61v5.9c0 .28.22.5.5.5h1c.23 0 .43-.16.48-.38l.9-3.61c1.08.04 1.47.23 1.89.44.54.27 1.11.55 2.72.55.28 0 .5-.22.5-.5s-.22-.5-.5-.5z"/><path d="m20 7.5h-2.32c-.38-.3-1.42-1-2.68-1-2.04 0-3.42 1.97-3.42 3.81 0 .59.15 1.11.45 1.49.34.45.85.69 1.47.69.1 0 .18-.02.28-.03 1.09 1.01 2.18 1.03 2.22 1.03.02 0 .04 0 .06-.01-.3.83-.76 1.81-1.42 2.52-.09.09-.14.21-.14.34v3.15h-.11l-.91-3.62c-.07-.27-.33-.43-.61-.36-.27.07-.43.34-.36.61l1 4c.06.22.26.38.49.38h1c.28 0 .5-.22.5-.5v-3.46c1.22-1.4 1.78-3.49 1.94-4.2l1.78-.89s.09-.06.13-.09c.05-.05 1.15-1.17 1.15-3.35 0-.28-.22-.5-.5-.5zm-7.18 3.7c-.16-.21-.24-.52-.24-.89 0-.7.32-1.6.93-2.19 0 .03.02.07.04.1.46.91.94 2.45.58 3.02-.04.07-.16.25-.64.25-.3 0-.52-.1-.68-.3zm5.87-.61-1.92.96c-.14.07-.24.2-.27.36 0 0-.06.3-.18.73-.09-.08-.2-.13-.32-.14-.03 0-.56-.03-1.21-.48.08-.08.14-.16.19-.24.78-1.27-.4-3.72-.54-4-.03-.06-.08-.12-.13-.16.21-.07.44-.11.68-.11 1.17 0 2.16.87 2.17.87.09.08.21.13.33.13h1.98c-.12 1.22-.63 1.91-.78 2.09z"/></svg>